<?xml version="1.0" encoding="UTF-8"?>
<svg id="Layer_2" xmlns="http://www.w3.org/2000/svg" viewBox="0 0 294.99 281.06">
    <defs>
        <style>
            .cls-1{
            stroke-width:2.48px;
            }
            .cls-1,.cls-2,.cls-3,.cls-4,.cls-5{
            stroke-miterlimit:10;
            }
            .cls-2{
            stroke-width:1.86px;
            }
            .cls-3{
            stroke-width:2.48px;
            }
            .cls-4{
            fill:none;
            stroke-width:2.44px;
            }
            .cls-5{
            stroke-width:1.86px;
            }
            .svg-fill-stroke{
            fill:#fff;
            stroke:#fff;
            }
        </style>
    </defs>
    <g class='svg-fill-stroke'>
        <polygon class="cls-2"
            points="293.75 107.58 293.75 279.28 264.84 279.28 264.84 136.51 293.75 107.58" />
        <polygon class="cls-3"
            points="30.15 136.96 30.15 279.28 1.24 279.28 1.24 108.05 30.15 136.96" />
        <polygon class="cls-5"
            points="235.96 165.39 235.96 279.28 207.06 279.28 207.06 194.3 208.02 193.33 228.44 172.88 235.96 165.39" />
        <polygon class="cls-1"
            points="293.75 25.85 293.75 66.74 264.84 95.62 235.96 124.5 208.02 152.46 207.06 151.5 207.06 153.41 187.58 172.88 167.16 193.33 146.71 213.75 105.85 172.88 87.93 154.99 85.97 153.01 59.03 126.09 30.15 97.21 1.24 68.28 1.24 27.41 30.15 56.32 59.03 85.2 87.93 114.1 106.39 132.56 126.29 152.46 146.71 172.88 167.16 152.46 187.58 132.02 207.06 112.57 235.96 83.66 264.84 54.75 293.75 25.85" />
        <polygon class="cls-1"
            points="87.93 194.74 87.93 279.28 59.03 279.28 59.03 165.84 66.07 172.88 85.97 192.78 87.93 194.74" />
        <polygon class="cls-1"
            points="235.96 3 235.96 42.79 207.06 71.68 167.16 111.6 146.71 132.02 59.03 44.33 59.03 3.47 87.93 32.37 147.26 91.7 235.96 3" />
    </g>
</svg>